HIERARCHY
ROOT Hips
{
	OFFSET -3.958830 18.904000 13.208200
	CHANNELS 6 Xposition Yposition Zposition Zrotation Yrotation Xrotation 
	JOINT LHipJoint
	{
		OFFSET 0.000000 0.000000 0.000000
		CHANNELS 3 Zrotation Yrotation Xrotation
		JOINT LeftUpLeg
		{
			OFFSET 1.800000 -1.400000 0.085000
			CHANNELS 3 Zrotation Yrotation Xrotation
			JOINT LeftLeg
			{
				OFFSET 2.215000 -6.000000 0.000000
				CHANNELS 3 Zrotation Yrotation Xrotation
				JOINT LeftFoot
				{
					OFFSET 2.500000 -6.900000 0.000000
					CHANNELS 3 Zrotation Yrotation Xrotation
					JOINT LeftToeBase
					{
						OFFSET 0.200000 -0.500000 1.950000
						CHANNELS 3 Zrotation Yrotation Xrotation
						End Site
						{
							OFFSET 0.000000 0.000000 0.000000
						}
					}
				}
			}
		}
	}
	JOINT RHipJoint
	{
		OFFSET 0.000000 0.000000 0.000000
		CHANNELS 3 Zrotation Yrotation Xrotation
		JOINT RightUpLeg
		{
			OFFSET -1.800000 -1.400000 0.085000
			CHANNELS 3 Zrotation Yrotation Xrotation
			JOINT RightLeg
			{
				OFFSET -2.215000 -6.000000 0.000000
				CHANNELS 3 Zrotation Yrotation Xrotation
				JOINT RightFoot
				{
					OFFSET -2.500000 -6.900000 0.000000
					CHANNELS 3 Zrotation Yrotation Xrotation
					JOINT RightToeBase
					{
						OFFSET -0.200000 -0.500000 1.950000
						CHANNELS 3 Zrotation Yrotation Xrotation
						End Site
						{
							OFFSET 0.000000 0.000000 0.000000
						}
					}
				}
			}
		}
	}
	JOINT LowerBack
	{
		OFFSET 0.000000 0.000000 0.000000
		CHANNELS 3 Zrotation Yrotation Xrotation
		JOINT Spine
		{
			OFFSET -0.087000 1.940000 -0.288900
			CHANNELS 3 Zrotation Yrotation Xrotation
			JOINT Spine1
			{
				OFFSET 0.000000 1.950000 0.060000
				CHANNELS 3 Zrotation Yrotation Xrotation
				JOINT Neck
				{
					OFFSET 0.000000 0.000000 0.000000
					CHANNELS 3 Zrotation Yrotation Xrotation
					JOINT Neck1
					{
						OFFSET 0.000000 1.600000 0.340000
						CHANNELS 3 Zrotation Yrotation Xrotation
						JOINT Head
						{
							OFFSET 0.000000 1.667000 -0.240000
							CHANNELS 3 Zrotation Yrotation Xrotation
							End Site
							{
								OFFSET 0.000000 0.000000 0.000000
							}
						}
					}
				}
				JOINT LeftShoulder
				{
					OFFSET 0.000000 0.000000 0.000000
					CHANNELS 3 Zrotation Yrotation Xrotation
					JOINT LeftArm
					{
						OFFSET 2.700000 1.550000 -0.730000
						CHANNELS 3 Zrotation Yrotation Xrotation
						JOINT LeftForeArm
						{
							OFFSET 5.450000 0.000000 0.000000
							CHANNELS 3 Zrotation Yrotation Xrotation
							JOINT LeftHand
							{
								OFFSET 3.450000 0.000000 0.000000
								CHANNELS 3 Zrotation Yrotation Xrotation
								JOINT LeftHandIndex1
								{
									OFFSET 0.750000 0.000000 0.000000
									CHANNELS 3 Zrotation Yrotation Xrotation
									End Site
									{
										OFFSET 0.000000 0.000000 0.000000
									}
								}
							}
						}
					}
				}
				JOINT RightShoulder
				{
					OFFSET 0.000000 0.000000 0.000000
					CHANNELS 3 Zrotation Yrotation Xrotation
					JOINT RightArm
					{
						OFFSET -2.700000 1.550000 -0.730000
						CHANNELS 3 Zrotation Yrotation Xrotation
						JOINT RightForeArm
						{
							OFFSET -5.450000 0.000000 0.000000
							CHANNELS 3 Zrotation Yrotation Xrotation
							JOINT RightHand
							{
								OFFSET -3.450000 0.000000 0.000000
								CHANNELS 3 Zrotation Yrotation Xrotation
								JOINT RightHandIndex1
								{
									OFFSET -0.750000 0.000000 0.000000
									CHANNELS 3 Zrotation Yrotation Xrotation
									End Site
									{
										OFFSET 0.000000 0.000000 0.000000
									}
								}
							}
						}
					}
				}
			}
		}
	}
}
MOTION
Frames: 4
Frame Time: 0.016667
-3.524720 16.982440 -8.889430 -10.836867 -16.214217 1.770774 -15.718039 14.321916 2.464451 23.374413 -0.895307 -3.777675 9.858209 3.205972 8.463473 0.313081 4.316413 3.081813 -0.075620 -0.137360 -0.019420 17.483389 -10.896524 2.691610 -9.045135 -0.594748 -7.346295 6.644595 -4.790976 9.033269 -0.090601 -3.435881 3.286641 -0.107790 0.090470 -0.039050 -1.152059 -2.685220 -7.446195 -9.403264 -0.112788 3.437363 14.083549 0.527618 -11.159967 -0.068087 -0.062990 -5.178036 -2.765784 7.191386 51.771885 5.784760 6.104250 9.601390 5.562817 26.922172 7.903897 -0.825251 46.385202 0.865009 18.165705 -1.075578 1.503005 -4.393712 2.702552 0.083200 0.052630 -0.045960 0.005960 -0.846265 -26.509510 1.702356 7.679042 -37.053675 -1.999913 -12.378572 7.074349 0.377920 3.149080 -1.234816 -0.083310 -0.007500 0.014140 -0.050520 
-3.696990 16.977130 -8.907940 -11.616846 -16.137037 1.180423 -15.736412 14.477128 2.351999 22.480956 -0.900842 -4.004483 11.311902 2.885809 10.243731 0.285974 4.231944 3.086503 -0.062400 -0.134890 0.020850 17.445806 -11.006545 2.736326 -7.243414 -0.537074 -7.452326 7.050888 -5.199701 11.502112 -0.113211 -3.473371 3.256916 -0.115280 0.042000 -0.036990 -1.027162 -2.596465 -7.377812 -10.679603 0.243093 4.032000 15.331997 1.170129 -12.244932 0.350644 1.139186 -4.859253 0.003725 5.767898 53.986780 6.047340 5.937170 9.448000 6.710802 27.832490 8.617294 -0.303149 46.887971 1.594263 18.095942 0.736019 1.656370 -4.461000 2.568342 0.121550 0.023400 -0.011380 -0.014590 -2.452189 -28.816599 1.608192 7.834164 -39.505244 -2.290931 -13.859606 8.271882 0.473454 3.227121 -1.263872 -0.077470 -0.023510 0.006050 -0.074280 
-3.856240 16.970510 -8.946840 -12.604821 -15.921986 0.684390 -15.748021 14.751491 2.194429 21.614744 -0.737050 -6.129439 13.319198 2.478072 13.844415 0.261435 4.167902 3.071502 -0.069920 -0.153490 0.035710 17.408500 -11.040434 2.816527 -5.361342 -0.365721 -7.615692 7.862841 -5.721997 14.151748 -0.135221 -3.566447 3.218574 -0.139030 0.012770 -0.040340 -0.937062 -2.806391 -7.363325 -11.593681 0.956648 5.489941 17.672308 2.281868 -13.298831 0.345407 1.923988 -5.010014 1.489121 4.497387 54.804982 6.213810 5.222980 9.587350 7.344704 27.667573 8.829399 0.173847 46.749316 1.598817 15.269527 1.933757 1.288167 -4.397523 2.470760 0.145160 0.000180 0.009220 -0.026700 -2.892075 -29.401476 2.030807 8.044276 -42.306482 -2.487671 -13.488646 9.024861 0.485658 3.225961 -1.256436 -0.072640 -0.034440 0.001720 -0.083600 
-3.996090 16.969220 -8.987280 -13.486409 -15.820699 0.049217 -15.726485 14.946864 2.081746 20.286424 -0.699366 -8.245828 15.479875 1.894918 17.535657 0.244482 4.196188 3.022511 -0.085250 -0.185250 0.062070 17.401262 -11.094855 2.923307 -3.802598 -0.128372 -7.842999 8.840982 -6.360184 16.793327 -0.174877 -3.739834 3.145881 -0.169210 -0.025980 -0.039560 -0.930482 -2.878000 -7.404355 -11.847465 1.252416 7.036159 18.319252 3.142846 -14.890959 0.815200 3.187047 -5.240364 4.257956 2.642152 56.522580 5.546010 5.093940 10.333000 7.375303 27.159445 8.589631 0.409643 46.199259 1.803519 16.549070 1.140549 1.492032 -4.411886 2.468244 0.170690 -0.015800 0.031840 -0.051310 -3.797180 -29.743097 2.095042 9.614687 -42.887884 -4.382225 -12.727354 13.057416 0.221017 3.171819 -1.389359 -0.070210 -0.054010 0.002490 -0.105310 
